# xmcd
# 
# Track frame offsets:
#     150
#     17110
#     34042
#     52640
#     70275
#     86405
#     103525
#     122392
#     141230
#     160132
#     182740
#     204295
#     220242
#     238045
#     256585
#     276600
#     309302
# 
# Disc length: 4514
# 
# Revision: 5
# Processed by: cddbd v1.5.2PL0 Copyright (c) Steve Scherf et al.
# Submitted via: fre:ac v1.0.31
# 
DISCID=e111a011
DTITLE=Jessica Andrews - NOW
DYEAR=2003
DGENRE=Country
TTITLE0=There's More To Me Than You
TTITLE1=When Gentry Plays Guitar
TTITLE2=I Wish For You
TTITLE3=To Love You Once
TTITLE4=I Bring It To You
TTITLE5=Never Be Forgotten
TTITLE6=They Are The Roses
TTITLE7=Sunshine And Love
TTITLE8=You're The Man (That Brings The Woman Out Of Me)
TTITLE9=Cowboy Guarantee
TTITLE10=Now
TTITLE11=Second Sunday
TTITLE12=Windows On A Train
TTITLE13=God Don't Give Up On Us
TTITLE14=Good Time
TTITLE15=There's More To Me Than You (Ballad Version)
TTITLE16=Data Track
EXTD=
EXTT0=
EXTT1=
EXTT2=
EXTT3=
EXTT4=
EXTT5=
EXTT6=
EXTT7=
EXTT8=
EXTT9=
EXTT10=
EXTT11=
EXTT12=
EXTT13=
EXTT14=
EXTT15=
EXTT16=
PLAYORDER=
